<?xml version="1.0" standalone="no"?>
<!DOCTYPE svg PUBLIC "-//W3C//DTD SVG 20010904//EN"
 "http://www.w3.org/TR/2001/REC-SVG-20010904/DTD/svg10.dtd">
<svg version="1.0" xmlns="http://www.w3.org/2000/svg"
 width="1024.000000pt" height="1024.000000pt" viewBox="0 0 1024.000000 1024.000000"
 preserveAspectRatio="xMidYMid meet">

<g transform="translate(0.000000,1024.000000) scale(0.100000,-0.100000)"
fill="#000000" stroke="none">
<path d="M5495 9109 c-142 -19 -204 -33 -259 -60 -33 -16 -64 -29 -70 -29 -6
0 -34 -16 -61 -36 -28 -19 -65 -42 -83 -51 -18 -9 -54 -41 -80 -72 -25 -31
-65 -77 -88 -102 -43 -47 -81 -117 -124 -226 -14 -35 -30 -63 -36 -63 -6 0
-30 6 -55 14 -51 16 -199 49 -316 71 -124 22 -403 39 -417 24 -7 -7 -7 -13 -1
-15 6 -3 28 -15 50 -29 22 -13 71 -40 109 -60 38 -19 77 -41 85 -49 9 -7 52
-35 96 -61 120 -72 209 -131 223 -148 7 -8 27 -21 45 -28 18 -7 60 -31 95 -53
61 -39 62 -40 62 -85 1 -45 18 -87 97 -231 16 -31 58 -85 92 -120 33 -36 61
-72 61 -80 0 -9 -23 -38 -51 -65 -28 -28 -63 -68 -79 -90 -15 -22 -56 -70 -91
-106 -101 -104 -303 -328 -356 -395 -66 -82 -244 -272 -262 -279 -18 -7 -86
57 -111 105 -10 19 -48 68 -84 109 -36 40 -66 79 -66 86 0 6 -12 22 -26 36
-15 13 -63 71 -108 127 -44 57 -100 127 -123 155 -23 29 -61 79 -84 112 -23
33 -63 83 -88 111 -25 28 -59 70 -76 94 -168 237 -167 235 -191 220 -10 -7
-43 -46 -73 -87 -68 -93 -84 -102 -139 -74 -22 11 -43 25 -47 31 -3 5 -32 26
-63 47 -31 20 -72 50 -90 65 -42 36 -56 35 -120 -4 -91 -57 -311 -219 -364
-269 -29 -27 -65 -55 -82 -63 -17 -8 -49 -34 -71 -57 -22 -23 -58 -55 -80 -71
-22 -16 -67 -55 -100 -87 -33 -31 -77 -70 -98 -86 -55 -41 -397 -385 -397
-399 0 -14 106 -86 127 -86 8 0 40 -18 72 -40 31 -22 60 -40 64 -40 4 0 31
-16 62 -35 30 -19 65 -39 78 -44 12 -5 45 -26 72 -47 28 -21 85 -57 127 -79
42 -22 114 -65 160 -96 46 -30 112 -73 148 -94 36 -21 88 -55 115 -75 28 -19
62 -41 77 -47 27 -12 198 -171 198 -185 0 -9 28 -50 101 -148 31 -42 62 -87
69 -100 7 -14 52 -83 99 -155 47 -71 94 -146 104 -165 9 -19 40 -71 68 -115
28 -44 65 -110 83 -146 18 -36 46 -86 63 -110 16 -24 36 -60 44 -79 23 -57 73
-139 87 -145 8 -3 60 40 125 103 177 171 268 255 327 302 30 24 80 67 110 95
60 56 144 110 158 101 5 -3 17 -27 27 -53 10 -26 26 -66 35 -88 10 -22 30 -76
45 -120 15 -44 30 -84 35 -90 5 -5 22 -44 38 -85 17 -41 46 -104 66 -138 20
-35 36 -67 36 -71 0 -5 9 -16 19 -25 11 -10 31 -41 44 -69 13 -29 43 -74 66
-102 23 -27 51 -68 63 -89 11 -21 42 -62 68 -90 81 -84 180 -207 175 -216 -2
-4 -28 -2 -57 6 -133 33 -180 39 -283 38 -131 -2 -194 -18 -279 -73 -34 -22
-80 -49 -104 -62 -50 -25 -75 -58 -70 -91 3 -22 9 -23 98 -30 52 -4 109 -12
125 -19 l30 -12 -25 -7 c-14 -5 -253 -8 -532 -9 -292 -1 -509 -5 -512 -10 -4
-5 13 -32 36 -61 24 -28 60 -75 80 -103 65 -90 57 -87 254 -87 l173 0 14 -32
c8 -18 29 -76 47 -128 18 -52 36 -99 40 -105 15 -22 66 -173 96 -282 2 -7 18
-13 36 -13 18 0 38 -4 43 -8 6 -4 19 -41 29 -82 11 -41 25 -88 31 -105 24 -57
55 -185 55 -223 0 -26 7 -45 20 -57 19 -17 55 -17 717 -11 384 4 856 11 1048
16 193 5 553 12 800 15 248 3 489 8 538 11 48 2 87 1 87 -4 0 -5 -69 -12 -152
-16 -84 -3 -234 -13 -333 -21 -251 -21 -417 -32 -815 -55 -190 -11 -390 -24
-445 -30 -55 -5 -167 -12 -250 -15 -82 -3 -256 -13 -385 -20 -129 -8 -356 -19
-505 -25 -148 -6 -292 -15 -320 -20 -57 -10 -234 -23 -312 -22 l-53 0 28 -41
c44 -66 75 -142 102 -252 22 -84 33 -91 142 -83 166 11 208 10 208 -7 0 -22
51 -174 95 -280 52 -127 65 -169 68 -212 l2 -38 -60 -7 c-33 -3 -148 -11 -255
-17 -107 -7 -198 -15 -203 -20 -4 -4 7 -14 25 -21 66 -26 179 -129 198 -180 7
-19 22 -50 33 -69 l20 -34 366 7 c201 3 596 11 876 16 281 6 848 15 1260 21
929 13 1273 19 1440 28 l130 6 3 77 c2 42 -1 92 -6 110 l-8 33 -430 7 c-236 4
-512 12 -614 18 -102 5 -277 14 -390 20 -113 5 -261 14 -330 20 -69 6 -206 15
-305 21 -99 5 -229 13 -290 18 -251 21 -462 31 -849 40 -225 6 -411 12 -413
15 -10 10 379 16 1522 26 1676 15 1934 18 1979 22 43 3 47 -1 68 -72 l13 -45
89 -3 c123 -4 144 18 116 119 -16 57 -43 69 -159 69 -121 0 -114 -7 -176 175
-23 68 -47 131 -53 138 -13 15 -318 19 -2269 34 -491 3 -893 10 -893 15 0 4
10 8 23 8 48 1 315 29 357 38 25 6 95 15 155 21 123 13 205 23 380 47 66 9
152 20 190 25 39 4 104 13 145 18 250 33 314 41 395 51 50 6 127 15 173 20
145 17 244 30 362 46 63 9 157 20 209 25 52 5 124 14 160 19 36 6 109 15 161
20 52 5 154 16 225 25 72 8 177 19 235 25 58 6 137 15 175 20 39 5 120 14 180
21 61 6 116 16 123 21 16 13 15 58 -2 80 -7 10 -30 31 -51 48 -44 35 -89 38
-196 16 -37 -8 -118 -18 -181 -21 l-114 -7 -12 68 c-6 38 -13 92 -17 119 -3
28 -10 84 -17 126 l-11 76 -276 7 c-152 3 -508 11 -791 16 -1109 20 -1237 25
-1425 50 -80 10 -163 16 -422 30 -184 10 -249 21 -208 33 11 4 94 11 185 17
91 6 206 15 255 20 50 5 160 12 245 15 85 4 180 10 210 16 30 5 102 13 160 19
58 6 152 17 210 25 124 18 318 41 485 60 143 16 349 40 500 60 61 7 137 16
170 20 33 3 107 12 165 20 58 8 152 19 210 25 58 6 137 15 175 21 235 33 361
49 389 49 58 0 85 58 50 108 -13 19 -24 22 -75 22 -66 0 -59 -6 -95 93 -10 27
-36 68 -60 93 l-43 44 -388 3 c-479 5 -431 2 -439 35 -3 15 -8 34 -10 42 -8
28 -93 109 -121 116 -15 3 -86 24 -156 46 l-129 40 125 127 c123 124 178 188
247 286 19 28 45 61 58 75 12 14 25 36 29 50 3 14 17 43 30 65 13 22 40 72 59
110 19 39 42 82 50 98 8 15 21 49 29 75 7 26 22 72 34 102 71 191 116 419 131
670 7 102 13 186 15 188 1 2 27 -6 56 -18 88 -34 395 -98 524 -111 169 -15
295 -1 295 34 0 7 -73 82 -162 167 -90 85 -196 188 -238 228 -122 118 -219
205 -258 231 -20 14 -71 54 -113 90 -91 78 -137 115 -201 160 -42 30 -47 38
-53 85 -11 81 -68 256 -105 319 -12 19 -30 61 -41 93 -12 33 -36 85 -55 117
-19 32 -34 60 -34 62 0 2 -22 38 -50 79 -27 42 -50 79 -50 83 0 5 -11 20 -25
35 -14 15 -34 45 -46 68 -20 37 -21 51 -15 133 4 60 1 131 -9 206 -18 135 -19
141 -56 256 -16 50 -29 97 -29 105 0 21 -55 124 -104 194 -23 32 -50 73 -61
91 -31 48 -175 180 -225 205 -25 12 -58 32 -75 45 -57 42 -241 115 -293 115
-13 0 -36 6 -51 14 -68 36 -400 57 -556 35z m158 -93 c31 -7 74 -24 95 -38 20
-14 56 -37 79 -51 23 -15 59 -52 80 -83 21 -31 51 -75 66 -98 15 -22 40 -77
55 -121 25 -74 27 -92 26 -245 0 -146 -2 -172 -22 -225 -36 -94 -51 -124 -107
-210 -42 -64 -69 -93 -134 -140 -50 -37 -104 -67 -139 -77 -76 -23 -184 -23
-253 1 -63 21 -136 57 -141 68 -1 5 -31 32 -65 61 -38 32 -70 71 -84 100 -13
26 -34 62 -46 81 -38 56 -72 185 -79 301 -5 89 -3 118 15 188 64 247 255 461
440 492 73 12 151 11 214 -4z m-80 -1413 c111 -102 292 -291 346 -362 31 -41
77 -103 103 -138 26 -34 63 -93 82 -131 19 -37 41 -73 48 -80 8 -6 25 -35 38
-64 13 -29 34 -78 48 -108 13 -30 30 -68 38 -85 105 -235 160 -474 202 -885
22 -216 -7 -600 -64 -840 -23 -99 -65 -241 -84 -285 -5 -11 -14 -38 -21 -60
-6 -22 -24 -67 -39 -100 -14 -33 -33 -76 -40 -95 -21 -54 -100 -203 -120 -225
-10 -11 -31 -46 -48 -77 -16 -31 -48 -79 -70 -105 -22 -26 -45 -58 -51 -70
l-12 -23 -335 0 -336 0 -61 52 c-33 29 -77 71 -96 92 -20 22 -66 71 -102 110
-36 39 -82 96 -101 126 -19 31 -41 62 -49 70 -29 30 -60 80 -74 119 -8 23 -25
56 -39 74 -24 31 -86 166 -101 217 -4 14 -17 50 -30 80 -75 178 -135 487 -135
692 l0 107 130 85 c71 48 140 91 154 97 14 7 27 18 31 26 8 22 -29 76 -83 124
-26 22 -69 68 -95 102 -90 116 -86 89 -34 250 25 78 56 174 68 212 12 39 30
86 39 105 10 19 34 67 53 105 20 39 42 88 49 110 8 22 33 67 57 100 23 33 67
98 96 145 30 46 83 117 117 158 78 92 310 332 321 332 5 0 32 20 60 45 29 25
60 45 70 45 10 0 42 -21 70 -47z m-2401 -232 l17 -35 -47 -31 c-95 -64 -201
-125 -219 -126 -10 0 -38 -14 -63 -30 -25 -16 -58 -37 -74 -47 -15 -9 -42 -27
-60 -39 -17 -12 -62 -41 -101 -64 -38 -23 -84 -56 -101 -73 -17 -17 -49 -40
-70 -51 -21 -10 -70 -42 -109 -70 -88 -65 -114 -81 -145 -90 -22 -7 -23 -6
-12 7 10 13 10 17 -3 21 -19 8 76 98 124 117 19 8 53 30 76 49 23 20 81 63
130 96 48 33 119 85 158 115 40 31 92 66 117 79 43 23 94 55 260 162 41 26 82
47 90 46 8 -1 23 -17 32 -36z m96 -163 c22 -22 13 -46 -25 -69 -21 -13 -63
-42 -93 -65 -30 -23 -75 -51 -100 -63 -49 -23 -126 -76 -178 -122 -19 -16 -41
-29 -49 -29 -21 0 -119 -66 -126 -84 -6 -15 -79 -66 -94 -66 -5 0 6 12 22 26
l30 25 -30 -15 c-33 -15 -83 -56 -70 -56 15 0 -29 -42 -60 -57 -16 -9 -39 -24
-51 -34 -15 -15 -32 -18 -72 -15 -40 3 -57 -1 -74 -16 -16 -14 -24 -16 -27 -7
-2 7 4 18 14 24 10 5 45 34 78 63 32 30 75 61 95 69 21 8 57 32 82 53 40 33
163 118 209 145 9 6 46 31 81 56 36 25 85 56 110 68 25 13 62 37 82 53 40 32
206 126 224 127 5 1 15 -4 22 -11z m109 -184 c17 -26 17 -27 -28 -65 -24 -21
-75 -57 -114 -80 -38 -23 -84 -54 -102 -68 -36 -30 -102 -71 -170 -108 -26
-14 -65 -41 -87 -60 -21 -19 -64 -47 -95 -60 -31 -14 -74 -43 -96 -63 -46 -44
-116 -84 -162 -94 -32 -7 -55 7 -28 18 8 3 15 10 15 16 0 19 -41 -10 -58 -41
-17 -28 -32 -38 -32 -20 0 12 74 91 85 91 6 0 22 16 38 35 15 19 44 42 65 52
20 9 60 36 87 60 28 24 78 57 112 74 35 17 65 34 68 39 8 14 122 91 205 139
41 24 86 54 100 67 28 25 148 92 167 93 7 1 20 -11 30 -25z m-747 -58 c0 -2
-8 -10 -17 -17 -16 -13 -17 -12 -4 4 13 16 21 21 21 13z m878 -128 c9 -24 38
-83 65 -133 26 -49 60 -115 74 -145 14 -30 56 -119 94 -196 60 -125 98 -216
99 -236 0 -3 -30 -23 -67 -43 -37 -20 -90 -57 -118 -81 -29 -24 -69 -51 -91
-60 -21 -9 -57 -33 -80 -53 -23 -20 -82 -64 -130 -97 -49 -33 -120 -82 -157
-107 -38 -26 -74 -47 -80 -47 -13 0 -45 49 -102 155 -21 39 -57 102 -81 141
-24 39 -44 75 -44 80 0 5 -43 75 -95 154 -53 80 -99 155 -102 169 -8 32 5 51
54 77 22 11 60 35 84 52 24 17 70 48 102 69 32 21 99 65 149 98 49 33 117 74
150 91 33 18 70 42 83 54 31 29 146 99 163 100 8 0 21 -19 30 -42z m-1058 -3
c0 -2 -10 -9 -22 -15 -22 -11 -22 -10 -4 4 21 17 26 19 26 11z m-105 -85 c-16
-16 -36 -30 -44 -30 -9 0 -2 12 19 30 46 38 62 38 25 0z m13 -205 c-43 -29
-48 -30 -48 -10 0 18 28 34 60 35 23 0 22 -2 -12 -25z m2612 -2542 c0 -9 -109
-43 -135 -43 -34 0 -12 17 43 32 66 18 92 21 92 11z m51 -34 c18 -9 19 -12 6
-27 -8 -9 -18 -27 -21 -39 -7 -23 -9 -23 -144 -17 -75 4 -139 9 -142 11 -13
11 32 23 90 23 86 1 142 14 159 39 15 24 24 25 52 10z m1341 -64 c56 -14 103
-25 104 -25 2 0 4 -4 4 -10 0 -10 -327 -14 -368 -3 -21 5 -12 10 54 33 43 15
85 28 92 29 7 0 58 -10 114 -24z m-1269 -32 c-7 -2 -19 -2 -25 0 -7 3 -2 5 12
5 14 0 19 -2 13 -5z m1890 0 c-18 -2 -48 -2 -65 0 -18 2 -4 4 32 4 36 0 50 -2
33 -4z"/>
<path d="M5271 8613 c-39 -16 -88 -91 -111 -168 -22 -74 27 -194 100 -243 29
-19 45 -23 87 -20 60 5 106 38 144 103 33 56 33 170 1 236 -37 75 -62 93 -140
96 -37 1 -73 0 -81 -4z"/>
<path d="M3095 7308 c-59 -30 -125 -78 -108 -78 5 0 13 4 19 9 5 5 45 30 89
55 91 52 91 61 0 14z"/>
</g>
</svg>
